# xmcd
#
# Track frame offsets:
#	150
#	16298
#	36659
#	57487
#	80080
#	104225
#	121617
#	143217
#	172294
#	192109
#	206189
#	228120
#	249038
#	271412
#
# Disc length: 3999 seconds
#
# Revision: 0
# Processed by: cddbd v1.4PL0 Copyright (c) Steve Scherf et al.
# Submitted via: EasyCDDAExtractor 4.6.0.1
#
DISCID=cd0f9d0e
DTITLE=Gillian Welch and David Rawlings - Gillian Welch and David Rawlings - Acous
DTITLE=tic Stage, Hickory, NC, 09/27/97 Disc 2
DYEAR=1900
DGENRE=
TTITLE0=Bright Morning Star
TTITLE1=Leaving Train
TTITLE2=Annabelle
TTITLE3=04. Gillian Welch and David RawlingsTennessee Stud
TTITLE4=Paper Wings
TTITLE5=By The Mark
TTITLE6=Dusty Boxcar Wall
TTITLE7=Old One And Only
TTITLE8=Diamond Joe
TTITLE9=Acony Belle
TTITLE10=Caleb Mayer
TTITLE11=Orphan Girl
TTITLE12=Albuquerque
TTITLE13=White Freighliner Blues
EXTD=
EXTT0=
EXTT1=
EXTT2=
EXTT3=
EXTT4=
EXTT5=
EXTT6=
EXTT7=
EXTT8=
EXTT9=
EXTT10=
EXTT11=
EXTT12=
EXTT13=
PLAYORDER=
